HIERARCHY
ROOT Hips
{
 OFFSET 0.000000 0.000000 0.000000
 CHANNELS 6 Xposition Yposition Zposition Yrotation Xrotation Zrotation
 JOINT Chest
 {
  OFFSET 0.000000 12.953391 -0.028419
  CHANNELS 3 Yrotation Xrotation Zrotation
  JOINT Chest2
  {
   OFFSET 0.000000 10.280254 0.051622
   CHANNELS 3 Yrotation Xrotation Zrotation
   JOINT Chest3
   {
    OFFSET 0.000000 9.287180 0.000000
    CHANNELS 3 Yrotation Xrotation Zrotation
    JOINT Chest4
    {
     OFFSET 0.000000 9.287180 0.000000
     CHANNELS 3 Yrotation Xrotation Zrotation
     JOINT Neck
     {
      OFFSET 0.000000 13.296264 0.000000
      CHANNELS 3 Yrotation Xrotation Zrotation
      JOINT Head
      {
       OFFSET 0.000000 8.959264 0.099003
       CHANNELS 3 Yrotation Xrotation Zrotation
       End Site
       {
        OFFSET 0.000000 17.121337 0.039303
       }
      }
     }
     JOINT RightCollar
     {
      OFFSET -3.193511 7.451388 0.000000
      CHANNELS 3 Yrotation Xrotation Zrotation
      JOINT RightShoulder
      {
       OFFSET -15.792092 0.000000 0.000000
       CHANNELS 3 Yrotation Xrotation Zrotation
       JOINT RightElbow
       {
        OFFSET -31.151839 0.000000 0.000000
        CHANNELS 3 Yrotation Xrotation Zrotation
        JOINT RightWrist
        {
         OFFSET -25.536298 0.000000 0.002321
         CHANNELS 3 Yrotation Xrotation Zrotation
         End Site
         {
          OFFSET -19.133213 0.000000 0.000000
         }
        }
       }
      }
     }
     JOINT LeftCollar
     {
      OFFSET 3.193511 7.451388 0.000000
      CHANNELS 3 Yrotation Xrotation Zrotation
      JOINT LeftShoulder
      {
       OFFSET 15.792092 0.000000 0.000000
       CHANNELS 3 Yrotation Xrotation Zrotation
       JOINT LeftElbow
       {
        OFFSET 31.151839 0.000000 0.000000
        CHANNELS 3 Yrotation Xrotation Zrotation
        JOINT LeftWrist
        {
         OFFSET 25.536298 0.000000 0.002321
         CHANNELS 3 Yrotation Xrotation Zrotation
         End Site
         {
          OFFSET 19.133213 0.000000 0.000000
         }
        }
       }
      }
     }
    }
   }
  }
 }
 JOINT RightHip
 {
  OFFSET -10.745749 0.139252 0.014209
  CHANNELS 3 Yrotation Xrotation Zrotation
  JOINT RightKnee
  {
   OFFSET 0.000000 -43.743899 -0.006071
   CHANNELS 3 Yrotation Xrotation Zrotation
   JOINT RightAnkle
   {
    OFFSET 0.000000 -43.214199 0.089931
    CHANNELS 3 Yrotation Xrotation Zrotation
    JOINT RightToe
    {
     OFFSET 0.000000 -9.699830 19.151588
     CHANNELS 3 Yrotation Xrotation Zrotation
     End Site
     {
      OFFSET 0.000000 -1.292898 4.893873
     }
    }
   }
  }
 }
 JOINT LeftHip
 {
  OFFSET 10.745749 0.139252 0.014209
  CHANNELS 3 Yrotation Xrotation Zrotation
  JOINT LeftKnee
  {
   OFFSET 0.000000 -43.743899 -0.006071
   CHANNELS 3 Yrotation Xrotation Zrotation
   JOINT LeftAnkle
   {
    OFFSET 0.000000 -43.214199 0.089931
    CHANNELS 3 Yrotation Xrotation Zrotation
    JOINT LeftToe
    {
     OFFSET 0.000000 -9.699830 19.151588
     CHANNELS 3 Yrotation Xrotation Zrotation
     End Site
     {
      OFFSET 0.000000 -1.292898 4.893873
     }
    }
   }
  }
 }
}
MOTION
Frames: 14
Frame Time: 0.016667
-83.230572 98.221506 53.366188 71.199108 -13.913896 3.076156 -0.247587 13.187562 4.390213 -0.234840 5.858628 1.944934 -0.234840 5.858628 1.944934 -0.194681 4.393278 1.459685 -11.303649 24.880655 3.727025 -21.113432 11.346949 9.269601 11.094902 8.678986 8.551254 27.544439 -23.771682 52.706371 -1.119971 -0.212157 -8.266522 -2.924493 21.292827 -43.195577 -7.579872 2.808472 -12.355394 -13.864472 -1.499579 -73.948214 -19.626520 0.189908 3.943481 7.023531 18.556797 6.962307 -16.301912 18.101025 -3.628809 -2.435910 4.087982 -0.075712 -21.487805 -10.508560 0.124624 0.000000 0.000000 -0.000000 15.968414 5.604540 5.054114 -1.381618 7.277976 -1.478938 -3.532232 3.796374 -3.853385 0.000000 -0.000000 -0.000000
-83.336422 98.219802 53.251950 71.370543 -13.757583 3.158039 -0.281901 13.156557 4.343794 -0.248364 5.844560 1.925468 -0.248362 5.844561 1.925467 -0.204581 4.382692 1.445227 -11.297785 24.892808 3.737960 -21.104196 11.370466 9.285812 11.054531 8.641699 8.655297 27.540526 -23.691364 52.656154 -1.073491 -0.273823 -8.304788 -2.854085 21.270261 -43.246695 -7.578485 2.855295 -12.230547 -13.846194 -1.584386 -73.993125 -19.825351 0.220539 4.003967 7.040332 18.571330 6.939345 -16.429281 17.945559 -3.731623 -2.768408 3.823540 -0.046909 -21.191053 -10.229677 -0.092419 -0.000000 0.000000 -0.000000 15.805589 5.236093 4.783724 -1.248948 7.528414 -1.504480 -3.648897 3.724891 -3.669139 -0.000000 0.000000 -0.000000
-83.442272 98.218097 53.137712 71.542094 -13.601507 3.240349 -0.316253 13.125598 4.297382 -0.261921 5.830524 1.906001 -0.261922 5.830528 1.906001 -0.214514 4.372133 1.430770 -11.291878 24.904942 3.748916 -21.094875 11.393952 9.302041 11.014313 8.604338 8.759419 27.536316 -23.611069 52.606035 -1.026945 -0.335482 -8.343037 -2.783664 21.247738 -43.297828 -7.576704 2.901922 -12.105611 -13.827913 -1.669076 -74.038287 -20.024285 0.251180 4.064004 7.057154 18.585866 6.916405 -16.556415 17.790026 -3.834095 -3.101139 3.559509 -0.016637 -20.895178 -9.950353 -0.308217 0.000000 0.000000 0.000000 15.645000 4.867237 4.513821 -1.115666 7.778680 -1.528729 -3.766001 3.653635 -3.484964 0.000000 -0.000000 -0.000000
-83.537298 98.237900 53.005537 71.741674 -13.439537 3.354028 -0.370475 13.084043 4.241747 -0.283889 5.811599 1.883035 -0.283889 5.811599 1.883035 -0.230697 4.357876 1.413770 -11.288037 24.934975 3.747743 -21.084814 11.448270 9.294375 10.990569 8.598048 8.858314 27.505567 -23.546703 52.554007 -0.962653 -0.406626 -8.383626 -2.715901 21.235987 -43.357931 -7.561675 2.973638 -12.005871 -13.801302 -1.756125 -74.083028 -20.227283 0.276725 4.139105 7.068099 18.592534 6.893036 -16.668413 17.627276 -3.969071 -3.419846 3.294583 0.016030 -20.664057 -9.676515 -0.487567 0.000000 -0.000000 0.000000 15.541399 4.495321 4.213688 -1.003675 8.009074 -1.528028 -3.934395 3.552195 -3.337735 0.000000 0.000000 0.000000
-83.619767 98.295293 52.847455 71.986794 -13.268268 3.525359 -0.457445 13.028631 4.167060 -0.319661 5.786251 1.852582 -0.319659 5.786246 1.852582 -0.257135 4.338763 1.391289 -11.286194 24.994365 3.729954 -21.071706 11.553514 9.253002 10.988176 8.636863 8.948690 27.436204 -23.510837 52.504335 -0.861563 -0.487341 -8.428701 -2.663460 21.231455 -43.431016 -7.529183 3.082395 -11.943588 -13.769686 -1.847760 -74.123058 -20.441746 0.288550 4.242923 7.066177 18.584592 6.863360 -16.763396 17.454513 -4.162094 -3.723080 3.017388 0.051062 -20.524049 -9.405764 -0.616220 0.000000 0.000000 0.000000 15.519191 4.129575 3.848079 -0.921210 8.170992 -1.486543 -4.201117 3.464781 -3.175881 0.000000 0.000000 0.000000
-83.691413 98.374194 52.671437 72.260270 -13.091803 3.728352 -0.564089 12.962383 4.083295 -0.363801 5.755970 1.818656 -0.363800 5.755966 1.818655 -0.289803 4.315939 1.366278 -11.286487 25.071712 3.700110 -21.057915 11.689655 9.187827 11.002300 8.706673 9.033904 27.340367 -23.491200 52.452867 -0.742596 -0.577389 -8.476132 -2.613563 21.237736 -43.512948 -7.483690 3.216355 -11.906329 -13.729803 -1.941734 -74.162887 -20.660549 0.295351 4.361527 7.058510 18.568746 6.833264 -16.843247 17.275213 -4.388255 -4.012605 2.739386 0.087595 -20.448181 -9.140880 -0.709288 0.000000 -0.000000 0.000000 15.555326 3.763501 3.449982 -0.860322 8.312679 -1.420204 -4.519404 3.347353 -3.051624 0.000000 0.000000 0.000000
-83.746604 98.447861 52.483453 72.537879 -12.915095 3.915576 -0.671252 12.884114 4.010883 -0.408414 5.720368 1.789725 -0.408414 5.720368 1.789725 -0.322860 4.289127 1.345011 -11.291347 25.150672 3.659630 -21.049820 11.827410 9.104512 11.034694 8.796344 9.118619 27.228051 -23.466484 52.384973 -0.645022 -0.685915 -8.521819 -2.530749 21.276299 -43.600360 -7.425408 3.365121 -11.882280 -13.663450 -2.033695 -74.215220 -20.865855 0.317930 4.468883 7.060280 18.557370 6.819965 -16.898756 17.091654 -4.604969 -4.278987 2.493546 0.124845 -20.420052 -8.895729 -0.775960 0.000000 -0.000000 0.000000 15.633356 3.370786 3.090273 -0.818076 8.559881 -1.351758 -4.798771 3.037138 -3.157104 0.000000 0.000000 0.000000
-83.780947 98.506486 52.282560 72.825393 -12.734096 4.074716 -0.779404 12.785114 3.959763 -0.453905 5.675525 1.770185 -0.453902 5.675522 1.770187 -0.356636 4.255372 1.330783 -11.305030 25.231238 3.599463 -21.053138 11.965713 8.987944 11.092697 8.914152 9.203177 27.101772 -23.426850 52.285181 -0.593176 -0.832227 -8.560406 -2.376430 21.373248 -43.683548 -7.349231 3.537996 -11.874349 -13.556018 -2.127711 -74.290679 -21.054706 0.368625 4.557794 7.082845 18.553131 6.839258 -16.917088 16.900796 -4.799663 -4.523599 2.291554 0.164213 -20.453212 -8.679276 -0.813090 0.000000 0.000000 0.000000 15.760594 2.927024 2.780103 -0.872502 8.973069 -1.279460 -5.095300 2.440714 -3.654830 0.000000 0.000000 0.000000
-83.798836 98.559878 52.069701 73.116850 -12.552616 4.218214 -0.887883 12.674039 3.919905 -0.499790 5.625315 1.755569 -0.499785 5.625310 1.755572 -0.390744 4.217591 1.320235 -11.323382 25.313469 3.528638 -21.062406 12.105743 8.853226 11.168901 9.051775 9.287569 26.958771 -23.382298 52.169074 -0.562758 -0.997225 -8.596991 -2.189118 21.502478 -43.771753 -7.260556 3.725859 -11.879279 -13.422091 -2.219315 -74.379054 -21.230101 0.434921 4.635133 7.114562 18.553415 6.875420 -16.911312 16.706065 -4.985687 -4.745011 2.121672 0.203544 -20.533696 -8.482546 -0.824435 0.000000 -0.000000 0.000000 15.929624 2.457123 2.506222 -0.944810 9.491862 -1.203011 -5.345249 1.652951 -4.382229 0.000000 0.000000 0.000000
-83.807823 98.610720 51.853680 73.370168 -12.386714 4.335391 -0.976095 12.576083 3.881671 -0.536916 5.581131 1.741063 -0.536916 5.581131 1.741063 -0.418316 4.184365 1.309680 -11.336046 25.381052 3.475670 -21.066916 12.221455 8.751299 11.243024 9.173155 9.375629 26.801185 -23.341150 52.068507 -0.520165 -1.132557 -8.643300 -2.049176 21.606988 -43.890583 -7.174995 3.890456 -11.876334 -13.287272 -2.291553 -74.461448 -21.382854 0.500334 4.696315 7.136143 18.562703 6.898328 -16.910966 16.518646 -5.158648 -4.929372 1.981638 0.237005 -20.603963 -8.292492 -0.829175 0.000000 0.000000 0.000000 16.100199 2.006050 2.304637 -0.796185 10.060707 -1.142517 -5.282491 0.800605 -5.054059 0.000000 0.000000 0.000000
-83.809990 98.660559 51.636113 73.563370 -12.245519 4.424636 -1.033231 12.505320 3.844423 -0.560579 5.549298 1.726128 -0.560582 5.549300 1.726128 -0.435829 4.160438 1.298688 -11.339448 25.423833 3.453065 -21.063993 12.296125 8.705183 11.311829 9.262461 9.467148 26.627778 -23.312377 51.984995 -0.464760 -1.209502 -8.705248 -1.982928 21.636784 -44.006682 -7.095850 4.013953 -11.861625 -13.159015 -2.337103 -74.532701 -21.519993 0.570852 4.738264 7.139822 18.581587 6.900820 -16.918012 16.343128 -5.317765 -5.069741 1.874441 0.260327 -20.648260 -8.104916 -0.832239 0.000000 0.000000 0.000000 16.243705 1.589531 2.188123 -0.335318 10.678366 -1.115408 -4.763719 -0.150717 -5.759139 0.000000 0.000000 0.000000
-83.803255 98.707848 51.415384 73.718238 -12.119350 4.487036 -1.070409 12.447936 3.808715 -0.575576 5.523566 1.711326 -0.575577 5.523566 1.711328 -0.446862 4.141107 1.287719 -11.337005 25.451874 3.448283 -21.056019 12.346329 8.691801 11.378660 9.335469 9.562032 26.439944 -23.286966 51.917057 -0.397276 -1.256860 -8.777089 -1.964127 21.641483 -44.153926 -7.019551 4.113985 -11.839422 -13.029898 -2.363600 -74.597411 -21.634191 0.640564 4.764553 7.133532 18.609458 6.889957 -16.930398 16.174255 -5.463111 -5.172766 1.796853 0.277851 -20.682282 -7.924035 -0.828561 0.000000 0.000000 0.000000 16.386308 1.189435 2.145622 0.347284 11.347268 -1.092443 -3.933512 -1.149123 -6.444837 0.000000 0.000000 0.000000
-83.788920 98.750629 51.195453 73.858280 -11.995914 4.515824 -1.100079 12.387426 3.766692 -0.587075 5.496532 1.693515 -0.587075 5.496532 1.693515 -0.455245 4.120816 1.274456 -11.328734 25.479133 3.452295 -21.039623 12.395874 8.692942 11.433235 9.403521 9.664002 26.243990 -23.245973 51.891899 -0.286119 -1.312513 -8.853192 -1.994460 21.713075 -44.459499 -6.951063 4.205255 -11.801478 -12.903214 -2.376940 -74.650941 -21.694627 0.675230 4.781139 7.121797 18.649020 6.856928 -16.971537 16.007973 -5.590851 -5.244983 1.737255 0.296911 -20.695793 -7.749527 -0.822027 0.000000 -0.000000 0.000000 16.568986 0.799025 2.178103 1.218243 12.016501 -1.020795 -2.973856 -1.959148 -6.609400 0.000000 -0.000000 0.000000
-83.769075 98.789292 50.980113 73.982671 -11.868779 4.508691 -1.120676 12.318945 3.716145 -0.594295 5.466058 1.671679 -0.594295 5.466059 1.671679 -0.460378 4.097962 1.258137 -11.313172 25.510263 3.465449 -21.011853 12.453148 8.708180 11.470384 9.470115 9.775942 26.073298 -23.168060 51.906379 -0.126052 -1.449421 -8.925811 -2.102569 21.910352 -45.009621 -6.893948 4.289778 -11.741787 -12.779540 -2.377522 -74.691468 -21.691042 0.668322 4.786307 7.101320 18.701406 6.788832 -17.064872 15.835574 -5.702703 -5.275952 1.696836 0.321046 -20.672970 -7.581487 -0.816831 -0.000000 0.000000 -0.000000 16.805580 0.423909 2.287865 2.378185 12.656756 -0.871182 -1.941661 -2.573339 -5.930970 -0.000000 0.000000 -0.000000
